<?xml version="1.0" standalone="no"?>
<!DOCTYPE svg PUBLIC "-//W3C//DTD SVG 20010904//EN"
 "http://www.w3.org/TR/2001/REC-SVG-20010904/DTD/svg10.dtd">
<svg version="1.0" xmlns="http://www.w3.org/2000/svg"
 width="301.437407pt" height="57.000000pt" viewBox="0 0 301.437407 57.000000"
 preserveAspectRatio="xMidYMid meet">
<metadata>
Created by potrace 1.16, written by Peter Selinger 2001-2019
</metadata>
<g transform="translate(0.000000,57.000000) scale(0.004247,-0.004247)"
fill="#333333" stroke="none">
<path d="M4592 12382 l-1792 -1037 0 -897 c0 -588 3 -898 10 -898 5 0 810 462
1787 1026 978 565 1786 1029 1795 1032 10 2 229 -119 545 -304 290 -169 1095
-635 1788 -1036 l1260 -727 3 891 c1 491 -1 895 -5 899 -23 22 -3569 2089
-3582 2088 -9 -1 -823 -467 -1809 -1037z"/>
<path d="M11680 11248 c-96 -88 -176 -164 -178 -168 -2 -4 204 -129 457 -276
l460 -269 1 -568 0 -567 28 6 c15 4 122 33 237 64 l210 57 2 594 3 594 -496
330 c-273 182 -508 338 -523 347 l-27 17 -174 -161z"/>
<path d="M1760 10745 l-785 -453 -2 -1724 -3 -1723 1796 -1050 c988 -577 1801
-1049 1807 -1047 18 5 1520 873 1534 886 10 9 -328 211 -1498 895 -831 486
-1633 955 -1782 1041 l-272 157 -5 1736 -5 1735 -785 -453z"/>
<path d="M10238 9453 l-3 -1727 -2703 -1561 c-1486 -858 -2701 -1564 -2700
-1570 4 -16 1532 -906 1547 -900 7 3 1235 710 2727 1572 l2714 1567 -2 1714
-3 1714 -760 445 c-418 244 -772 451 -787 459 l-28 14 -2 -1727z"/>
<path d="M44060 8625 l0 -1106 -67 54 c-272 218 -569 332 -930 356 -492 34
-940 -110 -1330 -425 -407 -330 -683 -843 -754 -1404 -16 -122 -16 -438 0
-560 50 -391 209 -783 440 -1085 120 -158 334 -350 508 -458 335 -207 618
-287 1014 -287 413 1 706 82 1026 285 l88 56 3 -141 3 -140 434 0 435 0 0
2980 0 2980 -435 0 -435 0 0 -1105z m-869 -1569 c311 -79 593 -316 752 -631
190 -379 192 -825 4 -1200 -222 -445 -668 -715 -1099 -665 -503 57 -919 493
-1003 1050 -50 325 25 682 197 947 67 101 197 243 285 310 141 106 330 188
488 213 97 15 267 4 376 -24z"/>
<path d="M15765 9704 c-122 -22 -210 -50 -320 -104 -321 -158 -530 -465 -607
-889 -17 -98 -21 -169 -25 -457 l-5 -341 -99 -6 c-82 -4 -110 -10 -163 -35
-118 -55 -199 -157 -225 -280 -6 -30 -11 -153 -11 -282 l0 -230 250 0 250 0 0
-1665 0 -1665 425 0 425 0 0 1665 0 1665 93 0 c213 0 374 82 493 248 85 117
97 163 102 390 l4 192 -347 0 -346 0 3 368 c4 410 6 421 75 502 46 54 102 79
173 80 144 1 273 55 365 151 66 69 143 220 174 344 20 77 40 231 41 306 l0 36
-88 12 c-125 16 -537 13 -637 -5z"/>
<path d="M62487 9235 c-87 -24 -160 -68 -232 -140 -115 -115 -155 -214 -155
-386 0 -165 54 -287 175 -397 102 -94 212 -135 360 -135 160 0 271 46 380 157
78 79 117 143 140 231 17 67 20 218 4 285 -40 175 -200 338 -380 385 -67 18
-227 18 -292 0z"/>
<path d="M26375 8933 c-216 -29 -367 -163 -427 -380 -20 -71 -22 -109 -26
-405 l-4 -328 -37 0 c-227 0 -435 -177 -470 -400 -6 -36 -11 -149 -11 -252 l0
-188 260 0 260 0 0 -1626 0 -1627 73 7 c122 12 208 36 312 86 172 83 310 221
394 393 82 166 76 47 79 1485 l2 1282 88 0 c132 0 207 15 300 61 148 72 264
206 313 359 17 51 22 102 26 243 l6 177 -367 0 -366 0 0 560 0 560 -187 -1
c-104 -1 -201 -4 -218 -6z"/>
<path d="M69325 7920 c-49 -4 -130 -15 -179 -24 -454 -86 -801 -380 -935 -795
-46 -141 -56 -212 -56 -396 0 -146 4 -181 23 -248 34 -120 66 -191 126 -280
222 -335 573 -559 1110 -712 160 -45 357 -122 453 -176 95 -54 205 -159 234
-223 14 -33 20 -67 20 -114 -1 -113 -27 -169 -114 -248 -70 -63 -135 -99 -242
-133 -302 -97 -452 -62 -720 166 -104 88 -171 130 -252 160 -188 68 -385 43
-564 -72 -82 -53 -209 -171 -209 -195 0 -43 159 -251 298 -387 281 -278 562
-447 852 -514 112 -26 376 -36 531 -20 539 57 947 316 1157 736 135 272 150
645 35 915 -139 325 -365 541 -773 739 -183 88 -332 143 -538 196 -330 85
-530 196 -578 321 -24 62 -15 172 19 247 88 192 375 291 617 212 116 -37 215
-77 334 -135 157 -75 199 -85 356 -85 120 1 143 4 208 27 95 34 192 93 267
161 l60 54 -19 58 c-56 164 -292 416 -513 549 -278 166 -658 248 -1008 216z"/>
<path d="M18278 7910 c-945 -92 -1694 -870 -1799 -1869 -15 -145 -6 -492 15
-621 61 -354 199 -678 408 -952 82 -108 282 -309 383 -385 221 -166 502 -295
765 -351 263 -57 588 -57 849 0 241 51 501 174 668 315 l52 44 20 -45 c22 -52
88 -126 146 -166 108 -75 290 -119 523 -127 l153 -6 -3 1759 -3 1759 -22 78
c-39 136 -95 230 -203 337 -52 52 -120 110 -152 128 -109 64 -253 102 -390
102 l-68 0 -2 -194 -3 -194 -65 49 c-216 164 -488 277 -780 324 -117 18 -375
27 -492 15z m373 -865 c339 -59 631 -282 794 -605 53 -105 101 -242 127 -362
32 -148 32 -428 0 -575 -85 -395 -310 -699 -635 -858 -178 -87 -354 -119 -573
-103 -368 27 -721 274 -899 628 -261 521 -154 1205 248 1587 157 149 355 251
560 288 98 18 277 18 378 0z"/>
<path d="M23005 7909 c-247 -24 -483 -106 -710 -247 l-80 -50 -3 149 -3 149
-424 0 -425 0 0 -2080 0 -2080 425 0 424 0 3 1303 3 1302 23 73 c99 323 393
579 734 638 277 49 566 -38 757 -227 140 -138 226 -295 271 -499 19 -81 20
-141 20 -1332 l0 -1248 425 0 425 0 0 1263 c0 1290 -2 1351 -40 1535 -74 355
-280 714 -538 937 -214 185 -517 336 -777 389 -163 33 -342 42 -510 25z"/>
<path d="M29666 7908 c-142 -12 -322 -51 -461 -98 -558 -192 -973 -559 -1225
-1083 -194 -402 -256 -797 -195 -1232 46 -328 186 -675 382 -946 293 -405 749
-701 1253 -812 440 -98 955 -43 1348 143 425 202 777 543 991 958 105 206 175
437 206 682 23 182 17 504 -14 665 -57 303 -143 516 -309 770 -241 371 -577
647 -979 809 -320 128 -646 175 -997 144z m465 -857 c100 -23 219 -68 338
-128 227 -116 419 -310 533 -538 106 -211 148 -377 148 -583 0 -207 -34 -364
-114 -530 -174 -356 -473 -601 -866 -710 -87 -24 -111 -26 -290 -26 -179 0
-203 2 -291 26 -718 195 -1144 919 -934 1588 78 248 229 481 403 623 177 145
449 267 662 297 97 13 311 4 411 -19z"/>
<path d="M34353 7910 c-257 -27 -543 -128 -723 -254 l-65 -45 -3 149 -3 150
-424 0 -425 0 0 -2080 0 -2080 425 0 425 0 0 1269 c0 1362 -1 1339 51 1476 53
141 190 315 325 411 79 57 211 119 311 146 111 31 343 30 458 -1 330 -88 572
-357 646 -718 18 -87 19 -150 17 -1337 l-3 -1246 425 2 425 3 2 1265 c1 882 5
1283 13 1325 63 340 314 603 675 707 112 32 331 32 450 -1 366 -99 611 -398
665 -812 5 -44 10 -567 10 -1276 l0 -1203 420 0 421 0 -4 1333 c-3 1183 -5
1341 -20 1410 -120 574 -412 976 -897 1235 -307 164 -739 221 -1110 146 -99
-20 -292 -85 -369 -124 -122 -61 -297 -181 -496 -340 -66 -52 -127 -100 -136
-107 -14 -11 -23 -4 -60 43 -147 185 -464 396 -721 479 -204 66 -496 97 -705
75z"/>
<path d="M47560 7909 c-379 -33 -791 -199 -1105 -444 -92 -72 -260 -240 -336
-335 -175 -221 -328 -529 -398 -801 -82 -319 -86 -691 -10 -1019 66 -286 229
-619 416 -850 84 -103 260 -272 368 -352 220 -164 524 -304 795 -367 356 -84
797 -63 1156 54 207 67 467 211 654 362 99 80 270 257 350 363 226 297 363
638 410 1015 15 118 15 404 0 530 -27 231 -100 478 -201 675 -407 797 -1214
1246 -2099 1169z m383 -844 c252 -38 520 -171 705 -350 107 -102 184 -207 250
-340 106 -213 146 -372 145 -585 -2 -344 -131 -644 -387 -895 -104 -102 -207
-173 -350 -240 -206 -99 -361 -131 -589 -122 -168 6 -280 31 -427 97 -258 117
-441 267 -580 478 -219 331 -274 717 -153 1071 120 350 341 608 648 757 265
128 487 167 738 129z"/>
<path d="M52245 7910 c-261 -30 -515 -117 -701 -240 l-89 -59 -3 149 -3 150
-424 0 -425 0 0 -2080 0 -2080 425 0 425 0 0 1259 c0 1373 -1 1354 57 1498 40
101 132 231 224 317 386 363 987 334 1315 -62 67 -81 145 -235 178 -353 46
-163 48 -209 44 -1472 l-3 -1187 420 2 420 3 2 1240 c1 682 4 1268 8 1303 13
139 88 316 188 441 105 132 313 264 492 313 108 29 335 31 440 4 159 -41 312
-132 427 -254 107 -114 174 -240 227 -432 l26 -95 3 -1257 3 -1258 420 0 420
0 -4 1338 -3 1337 -27 120 c-106 475 -344 833 -725 1088 -185 124 -395 208
-618 248 -160 29 -443 31 -589 5 -199 -36 -378 -99 -513 -181 -123 -75 -302
-202 -442 -315 l-125 -100 -29 37 c-53 68 -196 200 -286 265 -227 160 -434
248 -690 292 -116 20 -357 28 -465 16z"/>
<path d="M59225 7909 c-361 -34 -738 -190 -1027 -426 -343 -280 -602 -696
-712 -1144 -45 -188 -60 -317 -60 -544 0 -376 64 -665 218 -980 115 -234 228
-387 434 -587 301 -291 670 -467 1097 -524 161 -22 451 -14 619 15 240 43 500
154 681 291 l101 77 24 -51 c83 -180 348 -286 720 -286 l90 0 -2 1773 c-3
1670 -4 1775 -21 1832 -61 204 -211 382 -402 476 -104 51 -176 69 -307 76
l-108 6 0 -197 0 -196 -62 49 c-332 259 -805 384 -1283 340z m457 -877 c364
-97 646 -365 786 -748 140 -380 107 -828 -85 -1173 -162 -289 -445 -497 -756
-556 -103 -20 -308 -20 -407 -1 -413 79 -762 406 -884 828 -82 286 -71 639 28
902 157 416 464 685 870 762 104 20 349 12 448 -14z"/>
<path d="M65560 7913 c-298 -29 -556 -119 -788 -274 -24 -16 -45 -29 -48 -29
-2 0 -4 68 -4 150 l0 150 -420 0 -420 0 0 -2080 0 -2080 420 0 419 0 3 1293 3
1292 22 78 c87 307 349 556 679 643 96 25 309 26 419 1 106 -24 264 -102 347
-171 152 -127 261 -305 320 -527 l22 -84 3 -1257 4 -1258 419 0 420 0 0 1286
c0 1381 0 1375 -51 1579 -81 318 -272 641 -502 850 -214 193 -505 345 -778
403 -158 35 -353 49 -489 35z"/>
<path d="M62200 5830 l0 -2080 425 0 425 0 0 2080 0 2080 -425 0 -425 0 0
-2080z"/>
<path d="M970 4828 l0 -1684 2716 -1568 c1493 -863 2723 -1570 2732 -1572 20
-5 1546 887 1543 901 -1 6 -1218 712 -2704 1570 l-2702 1560 -5 778 -5 778
-731 428 c-402 235 -757 442 -788 460 l-56 32 0 -1683z"/>
<path d="M11030 6046 l-785 -454 -3 -778 -3 -779 -232 -134 c-757 -435 -3327
-1945 -3325 -1953 3 -8 405 -242 1389 -809 l155 -90 1790 1047 c984 575 1792
1049 1797 1053 4 4 6 759 5 1679 l-3 1671 -785 -453z"/>
<path d="M39854 5055 c-229 -50 -378 -236 -391 -490 -9 -176 38 -306 153 -421
96 -97 216 -144 362 -144 150 0 276 53 372 157 101 108 140 212 140 378 0 159
-43 275 -142 381 -122 130 -302 181 -494 139z"/>
<path d="M228 3937 l-228 -62 0 -595 1 -595 510 -340 c281 -187 517 -341 524
-343 10 -2 365 312 365 323 0 1 -207 123 -460 271 l-460 269 0 568 c0 447 -3
567 -12 566 -7 0 -115 -28 -240 -62z"/>
</g>
</svg>
