<?xml version="1.0" standalone="no"?>
<!DOCTYPE svg PUBLIC "-//W3C//DTD SVG 20010904//EN"
 "http://www.w3.org/TR/2001/REC-SVG-20010904/DTD/svg10.dtd">
<svg version="1.0" xmlns="http://www.w3.org/2000/svg"
 width="35.000000pt" height="48.000000pt" viewBox="0 0 35.000000 48.000000"
 preserveAspectRatio="xMidYMid meet">
<metadata>
Created by potrace 1.16, written by Peter Selinger 2001-2019
</metadata>
<g transform="translate(0.000000,48.000000) scale(0.002713,-0.003577)"
fill="#6666ff" stroke="none">
<path d="M4605 12386 l-1790 -1035 -3 -901 c-2 -816 -1 -902 14 -896 8 3 815
468 1792 1032 977 565 1782 1027 1787 1027 6 0 235 -132 510 -293 275 -161
1065 -619 1755 -1017 690 -399 1270 -734 1288 -745 l32 -20 0 899 -1 898
-1779 1040 c-979 572 -1788 1041 -1797 1042 -10 2 -823 -463 -1808 -1031z"/>
<path d="M11700 11264 c-85 -80 -165 -155 -178 -167 l-22 -23 460 -269 460
-269 0 -568 c0 -312 3 -568 8 -568 4 0 111 29 237 63 l230 63 2 594 3 595
-496 330 c-273 182 -508 337 -523 346 l-26 17 -155 -144z"/>
<path d="M1757 10741 l-787 -455 2 -1720 3 -1721 1799 -1052 1799 -1052 41 24
c22 14 371 215 773 447 403 233 732 427 730 431 -2 7 -2299 1354 -3249 1906
l-318 185 -2 1731 -3 1731 -788 -455z"/>
<path d="M10248 9455 l-3 -1726 -2707 -1562 c-1489 -859 -2706 -1566 -2704
-1571 3 -13 1529 -906 1543 -903 6 1 1236 709 2732 1572 l2720 1570 1 1710 0
1711 -776 454 c-427 250 -783 459 -790 463 -12 7 -14 -270 -16 -1718z"/>
<path d="M970 4828 l0 -1683 2720 -1570 c1497 -863 2728 -1570 2738 -1570 24
0 1542 888 1538 900 -1 6 -1219 713 -2707 1571 l-2704 1562 -5 778 -5 778
-783 458 c-431 252 -785 458 -787 458 -3 0 -5 -757 -5 -1682z"/>
<path d="M11033 6047 l-782 -452 -3 -779 -3 -779 -240 -139 c-567 -327 -3325
-1943 -3325 -1948 0 -3 349 -207 775 -453 l775 -448 1800 1053 1800 1053 0
1673 c0 919 -3 1672 -7 1671 -5 0 -360 -204 -790 -452z"/>
<path d="M230 3936 l-225 -61 -3 -593 -2 -592 512 -342 c282 -188 521 -342
530 -342 19 -1 358 304 354 318 -1 5 -207 129 -457 275 l-454 267 -3 567 c-2
444 -5 567 -15 566 -6 0 -113 -29 -237 -63z"/>
</g>
</svg>
